# xmcd CD database file
#
# Track frame offsets:
#	150
#	22424
#	45640
#	59049
#	86534
#	108336
#	133448
#	155560
#	175036
#	207455
#	233046
#
# Disc length: 3352 seconds
#
# Revision: 0
# Processed by: cddbd v1.5.2PL0 Copyright (c) Steve Scherf et al.
# Submitted via: CDex 1.51
#
DISCID=a00d160b
DTITLE=Apropos Jazz - Wonderful and Rare
DYEAR=2014
DGENRE=Jazz
TTITLE0=Time After Time
TTITLE1=On Green Dolphin Street
TTITLE2=I'm Old Fashioned
TTITLE3=Ternderly
TTITLE4=I Love Being Here With You
TTITLE5=Wonderful And Rare
TTITLE6=Out Of Nowhere
TTITLE7=You'd Be So Nice To Come Home To
TTITLE8=My Funny Valentine
TTITLE9=So What
TTITLE10=Bebop Groove
EXTD=YEAR: 2014
EXTT0=
EXTT1=
EXTT2=
EXTT3=
EXTT4=
EXTT5=
EXTT6=
EXTT7=
EXTT8=
EXTT9=
EXTT10=
PLAYORDER=
